<mxfile host="app.diagrams.net" modified="2024-07-08T16:46:01.829Z" agent="Mozilla/5.0 (Macintosh; Intel Mac OS X 10_15_7) AppleWebKit/537.36 (KHTML, like Gecko) Chrome/126.0.0.0 Safari/537.36" etag="BEJSp3A1EW7U6DU_6F4n" version="24.6.4" type="github">
  <diagram name="Página-1" id="pMPwNeUqAYihZ4KnCTLO">
    <mxGraphModel dx="981" dy="527" grid="1" gridSize="10" guides="1" tooltips="1" connect="1" arrows="1" fold="1" page="1" pageScale="1" pageWidth="1169" pageHeight="827" math="0" shadow="0">
      <root>
        <mxCell id="0" />
        <mxCell id="1" parent="0" />
        <mxCell id="afB3QxRyEOOV9Eug5rTz-3" value="" style="edgeStyle=orthogonalEdgeStyle;rounded=0;orthogonalLoop=1;jettySize=auto;html=1;" edge="1" parent="1" source="afB3QxRyEOOV9Eug5rTz-1" target="afB3QxRyEOOV9Eug5rTz-2">
          <mxGeometry relative="1" as="geometry" />
        </mxCell>
        <mxCell id="afB3QxRyEOOV9Eug5rTz-1" value="Tables" style="image;sketch=0;aspect=fixed;html=1;points=[];align=center;fontSize=12;image=img/lib/mscae/SAP_HANA_on_Azure.svg;" vertex="1" parent="1">
          <mxGeometry x="230" y="70" width="50" height="25" as="geometry" />
        </mxCell>
        <mxCell id="afB3QxRyEOOV9Eug5rTz-2" value="SAP BW&lt;br&gt;(Cubo)" style="image;sketch=0;aspect=fixed;html=1;points=[];align=center;fontSize=12;image=img/lib/mscae/SAP_HANA_on_Azure.svg;" vertex="1" parent="1">
          <mxGeometry x="360" y="70" width="50" height="25" as="geometry" />
        </mxCell>
        <mxCell id="afB3QxRyEOOV9Eug5rTz-4" value="SAP BO&lt;br&gt;(View)" style="image;sketch=0;aspect=fixed;html=1;points=[];align=center;fontSize=12;image=img/lib/mscae/SAP_HANA_on_Azure.svg;" vertex="1" parent="1">
          <mxGeometry x="490" y="70" width="50" height="25" as="geometry" />
        </mxCell>
        <mxCell id="afB3QxRyEOOV9Eug5rTz-6" value="" style="edgeStyle=orthogonalEdgeStyle;rounded=0;orthogonalLoop=1;jettySize=auto;html=1;" edge="1" parent="1" source="afB3QxRyEOOV9Eug5rTz-7" target="afB3QxRyEOOV9Eug5rTz-9">
          <mxGeometry relative="1" as="geometry" />
        </mxCell>
        <mxCell id="afB3QxRyEOOV9Eug5rTz-7" value="Tables" style="image;sketch=0;aspect=fixed;html=1;points=[];align=center;fontSize=12;image=img/lib/mscae/SAP_HANA_on_Azure.svg;" vertex="1" parent="1">
          <mxGeometry x="230" y="221.5" width="50" height="25" as="geometry" />
        </mxCell>
        <mxCell id="afB3QxRyEOOV9Eug5rTz-9" value="SAP BW&lt;br&gt;(Cubo)" style="image;sketch=0;aspect=fixed;html=1;points=[];align=center;fontSize=12;image=img/lib/mscae/SAP_HANA_on_Azure.svg;" vertex="1" parent="1">
          <mxGeometry x="360" y="221.5" width="50" height="25" as="geometry" />
        </mxCell>
        <mxCell id="afB3QxRyEOOV9Eug5rTz-20" style="edgeStyle=orthogonalEdgeStyle;rounded=0;orthogonalLoop=1;jettySize=auto;html=1;" edge="1" parent="1" source="afB3QxRyEOOV9Eug5rTz-11" target="afB3QxRyEOOV9Eug5rTz-9">
          <mxGeometry relative="1" as="geometry" />
        </mxCell>
        <mxCell id="afB3QxRyEOOV9Eug5rTz-11" value="Power BI" style="image;aspect=fixed;html=1;points=[];align=center;fontSize=12;image=img/lib/azure2/analytics/Power_BI_Embedded.svg;" vertex="1" parent="1">
          <mxGeometry x="490" y="200" width="51" height="68" as="geometry" />
        </mxCell>
        <mxCell id="afB3QxRyEOOV9Eug5rTz-12" value="" style="edgeStyle=orthogonalEdgeStyle;rounded=0;orthogonalLoop=1;jettySize=auto;html=1;" edge="1" parent="1" source="afB3QxRyEOOV9Eug5rTz-13" target="afB3QxRyEOOV9Eug5rTz-15">
          <mxGeometry relative="1" as="geometry" />
        </mxCell>
        <mxCell id="afB3QxRyEOOV9Eug5rTz-13" value="Tables" style="image;sketch=0;aspect=fixed;html=1;points=[];align=center;fontSize=12;image=img/lib/mscae/SAP_HANA_on_Azure.svg;" vertex="1" parent="1">
          <mxGeometry x="230" y="381.5" width="50" height="25" as="geometry" />
        </mxCell>
        <mxCell id="afB3QxRyEOOV9Eug5rTz-18" style="edgeStyle=orthogonalEdgeStyle;rounded=0;orthogonalLoop=1;jettySize=auto;html=1;" edge="1" parent="1" source="afB3QxRyEOOV9Eug5rTz-15" target="afB3QxRyEOOV9Eug5rTz-17">
          <mxGeometry relative="1" as="geometry" />
        </mxCell>
        <mxCell id="afB3QxRyEOOV9Eug5rTz-15" value="SAP BW&lt;br&gt;(Cubo)" style="image;sketch=0;aspect=fixed;html=1;points=[];align=center;fontSize=12;image=img/lib/mscae/SAP_HANA_on_Azure.svg;" vertex="1" parent="1">
          <mxGeometry x="360" y="381.5" width="50" height="25" as="geometry" />
        </mxCell>
        <mxCell id="afB3QxRyEOOV9Eug5rTz-16" value="Power BI" style="image;aspect=fixed;html=1;points=[];align=center;fontSize=12;image=img/lib/azure2/analytics/Power_BI_Embedded.svg;" vertex="1" parent="1">
          <mxGeometry x="630" y="360" width="51" height="68" as="geometry" />
        </mxCell>
        <mxCell id="afB3QxRyEOOV9Eug5rTz-17" value="Datahub" style="image;aspect=fixed;html=1;points=[];align=center;fontSize=12;image=img/lib/azure2/analytics/Azure_Databricks.svg;" vertex="1" parent="1">
          <mxGeometry x="490" y="360" width="62.8" height="68" as="geometry" />
        </mxCell>
        <mxCell id="afB3QxRyEOOV9Eug5rTz-21" style="edgeStyle=orthogonalEdgeStyle;rounded=0;orthogonalLoop=1;jettySize=auto;html=1;entryX=1.056;entryY=0.501;entryDx=0;entryDy=0;entryPerimeter=0;" edge="1" parent="1" source="afB3QxRyEOOV9Eug5rTz-4" target="afB3QxRyEOOV9Eug5rTz-2">
          <mxGeometry relative="1" as="geometry" />
        </mxCell>
        <mxCell id="afB3QxRyEOOV9Eug5rTz-22" style="edgeStyle=orthogonalEdgeStyle;rounded=0;orthogonalLoop=1;jettySize=auto;html=1;entryX=1.023;entryY=0.513;entryDx=0;entryDy=0;entryPerimeter=0;" edge="1" parent="1" source="afB3QxRyEOOV9Eug5rTz-16" target="afB3QxRyEOOV9Eug5rTz-17">
          <mxGeometry relative="1" as="geometry" />
        </mxCell>
        <mxCell id="afB3QxRyEOOV9Eug5rTz-24" value="Tables" style="image;sketch=0;aspect=fixed;html=1;points=[];align=center;fontSize=12;image=img/lib/mscae/SAP_HANA_on_Azure.svg;" vertex="1" parent="1">
          <mxGeometry x="230" y="531.5" width="50" height="25" as="geometry" />
        </mxCell>
        <mxCell id="afB3QxRyEOOV9Eug5rTz-27" value="Power BI" style="image;aspect=fixed;html=1;points=[];align=center;fontSize=12;image=img/lib/azure2/analytics/Power_BI_Embedded.svg;" vertex="1" parent="1">
          <mxGeometry x="489" y="510" width="51" height="68" as="geometry" />
        </mxCell>
        <mxCell id="afB3QxRyEOOV9Eug5rTz-28" value="Datahub" style="image;aspect=fixed;html=1;points=[];align=center;fontSize=12;image=img/lib/azure2/analytics/Azure_Databricks.svg;" vertex="1" parent="1">
          <mxGeometry x="349" y="510" width="62.8" height="68" as="geometry" />
        </mxCell>
        <mxCell id="afB3QxRyEOOV9Eug5rTz-29" style="edgeStyle=orthogonalEdgeStyle;rounded=0;orthogonalLoop=1;jettySize=auto;html=1;entryX=1.023;entryY=0.513;entryDx=0;entryDy=0;entryPerimeter=0;" edge="1" parent="1" source="afB3QxRyEOOV9Eug5rTz-27" target="afB3QxRyEOOV9Eug5rTz-28">
          <mxGeometry relative="1" as="geometry" />
        </mxCell>
        <mxCell id="afB3QxRyEOOV9Eug5rTz-30" style="edgeStyle=orthogonalEdgeStyle;rounded=0;orthogonalLoop=1;jettySize=auto;html=1;entryX=0;entryY=0.499;entryDx=0;entryDy=0;entryPerimeter=0;" edge="1" parent="1" source="afB3QxRyEOOV9Eug5rTz-24" target="afB3QxRyEOOV9Eug5rTz-28">
          <mxGeometry relative="1" as="geometry" />
        </mxCell>
        <mxCell id="afB3QxRyEOOV9Eug5rTz-31" value="Cenário Atual:&lt;div&gt;SAP: Contem as tabelas com os dados base&lt;/div&gt;&lt;div&gt;SAP BW: Responsável por agregar os dados, aplicar regras de negócios, criar tables views, disponibilizar Cubo de dados especifico.&lt;/div&gt;&lt;div&gt;SAP BO: Consome dados do Cubo e gera o relatório&lt;/div&gt;" style="text;html=1;align=left;verticalAlign=top;whiteSpace=wrap;rounded=0;horizontal=1;strokeColor=default;dashed=1;" vertex="1" parent="1">
          <mxGeometry x="555" y="50" width="375" height="100" as="geometry" />
        </mxCell>
        <mxCell id="afB3QxRyEOOV9Eug5rTz-32" value="Cenário Proposto 1:&lt;div&gt;SAP: Contem as tabelas com os dados base&lt;/div&gt;&lt;div&gt;SAP BW: Responsável por agregar os dados, aplicar regras de negócios, criar tables views, disponibilizar Cubo de dados especifico.&lt;/div&gt;&lt;div&gt;PBI: Consome dados do Cubo e gera o relatório&lt;/div&gt;" style="text;html=1;align=left;verticalAlign=top;whiteSpace=wrap;rounded=0;horizontal=1;strokeColor=default;dashed=1;" vertex="1" parent="1">
          <mxGeometry x="552.8" y="190" width="375" height="100" as="geometry" />
        </mxCell>
        <mxCell id="afB3QxRyEOOV9Eug5rTz-33" value="Cenário Proposto 2:&lt;div&gt;SAP: Contem as tabelas com os dados base&lt;/div&gt;&lt;div&gt;SAP BW: Responsável por agregar os dados, aplicar regras de negócios, criar tables views, disponibilizar Cubo de dados especifico.&lt;/div&gt;&lt;div&gt;Datahub: Ingestão dos dados provenientes do Cubo e disponibilização para consulta via Catalogo&lt;br&gt;PBI: Consome dados do Datahub e gera o relatório&lt;/div&gt;" style="text;html=1;align=left;verticalAlign=top;whiteSpace=wrap;rounded=0;horizontal=1;strokeColor=default;dashed=1;" vertex="1" parent="1">
          <mxGeometry x="690" y="350" width="375" height="110" as="geometry" />
        </mxCell>
        <mxCell id="afB3QxRyEOOV9Eug5rTz-34" value="Cenário Proposto 3:&lt;div&gt;SAP: Contem as tabelas com os dados base&lt;/div&gt;&lt;div&gt;Datahub: Ingestão dos dados provenientes do SAP,&amp;nbsp;&lt;span style=&quot;background-color: initial;&quot;&gt;agregar os dados, aplicar regras de negócios, criar Cubo de dados especifico e&lt;/span&gt;&lt;span style=&quot;background-color: initial;&quot;&gt;&amp;nbsp;disponibilização para consulta via Catalogo&lt;/span&gt;&lt;/div&gt;&lt;div&gt;PBI: Consome dados do Datahub e gera o relatório&lt;/div&gt;" style="text;html=1;align=left;verticalAlign=top;whiteSpace=wrap;rounded=0;horizontal=1;strokeColor=default;dashed=1;" vertex="1" parent="1">
          <mxGeometry x="552.8" y="500" width="375" height="100" as="geometry" />
        </mxCell>
      </root>
    </mxGraphModel>
  </diagram>
</mxfile>
